<svg width="180" height="48" viewBox="0 0 180 48" fill="none" xmlns="http://www.w3.org/2000/svg">
<path fill-rule="evenodd" clip-rule="evenodd" d="M88.5989 13.262C82.7651 13.2636 78.0369 17.9937 78.0378 23.8275C78.0386 29.6613 82.7681 34.3901 88.602 34.39C94.4358 34.39 99.1652 29.661 99.1658 23.8272C99.1664 21.0247 98.0532 18.3368 96.0714 16.3553C94.0895 14.3737 91.4015 13.261 88.5989 13.262ZM130.296 13.262C124.462 13.2637 119.734 17.9939 119.735 23.8277C119.736 29.6615 124.465 34.3902 130.299 34.39C136.133 34.3899 140.862 29.661 140.863 23.8272C140.862 17.9919 136.131 13.2621 130.296 13.262ZM171.506 13.9477H165.663L157.498 33.9486H162.559L164.419 29.0678H172.748L174.609 33.9486H179.668L171.506 13.9477ZM165.772 25.513L168.585 18.1365L171.394 25.513H165.772ZM124.33 23.8272C124.33 27.4974 126.999 30.4713 130.296 30.4713C133.587 30.4713 136.26 27.4978 136.26 23.8272C136.26 20.1566 133.587 17.181 130.296 17.181C127 17.181 124.33 20.1571 124.33 23.8272ZM82.637 23.8272C82.637 27.4974 85.307 30.4713 88.5989 30.4713C91.8949 30.4713 94.565 27.4978 94.565 23.8272C94.565 20.1566 91.8916 17.181 88.5989 17.181C85.3063 17.181 82.637 20.1571 82.637 23.8272ZM109.539 22.0399L114.716 13.9477H119.779L111.765 26.4923V33.9486H107.308V26.4904L99.2945 13.9477H104.358L109.539 22.0399ZM158.563 13.9477H141.461V17.783H147.795V33.9486H152.257V17.783H158.563L158.563 13.9477ZM66.3364 17.783H60V13.9477H77.104V17.783H70.7952V33.9486H66.3364V17.783Z" fill="black"/>
<rect width="48" height="48" fill="#EB0A1E"/>
<path fill-rule="evenodd" clip-rule="evenodd" d="M15.9962 13.5697C21.2244 12.0507 26.7768 12.0507 32.005 13.5697C37.9289 15.4759 42.0001 19.4304 42.0001 24.0014C42.0001 30.4324 33.9432 35.6468 24.001 35.6468C14.0587 35.6468 6.00012 30.4324 6.00012 24.0014C6.00012 19.4304 10.0711 15.4745 15.9962 13.5697ZM21.2348 24.0574C21.3058 27.7228 22.5173 30.6398 24.001 30.6398C25.4829 30.6398 26.6942 27.7228 26.7657 24.0574C25.8738 24.1377 24.9495 24.1806 24.001 24.1806C23.0524 24.1806 22.1269 24.1377 21.2348 24.0574ZM21.4217 21.1881C21.8268 18.6153 22.8279 16.7929 24.001 16.7929C25.174 16.7929 26.1746 18.6153 26.5788 21.1881C25.7546 21.2625 24.8911 21.3037 24.001 21.3037C23.1108 21.3037 22.247 21.2625 21.4217 21.1881ZM24.001 14.0609C25.9208 14.0609 27.5531 16.9557 28.1552 20.9938H28.1563C31.8129 20.423 34.3688 19.1241 34.3688 17.6107C34.3688 15.5715 29.727 13.9181 24.0012 13.9181C18.2754 13.9181 13.6336 15.5715 13.6336 17.6107C13.6336 19.1241 16.1892 20.423 19.8456 20.9938C20.4476 16.9557 22.0812 14.0609 24.001 14.0609ZM8.62825 23.5753C8.62825 21.604 9.38688 19.7564 10.7108 18.1669C10.6954 18.2775 10.6874 18.389 10.687 18.5006C10.687 20.9793 14.4122 23.0886 19.6056 23.8632C19.6015 24.0505 19.5984 24.2381 19.5984 24.4278C19.5984 29.0389 20.8776 32.9445 22.6458 34.2911C14.7895 33.8106 8.62754 29.1976 8.62754 23.5753H8.62825ZM28.4028 24.4278C28.4028 29.0391 27.1241 32.9445 25.3568 34.2911C33.2115 33.8106 39.3734 29.1976 39.3734 23.5753C39.3734 21.604 38.6143 19.7564 37.2908 18.1669C37.3063 18.2775 37.3143 18.389 37.3147 18.5006C37.3147 20.9793 33.589 23.0883 28.3966 23.8632C28.4009 24.0505 28.4028 24.2371 28.4028 24.4278Z" fill="white"/>
</svg>
